<svg width="327" height="44" viewBox="0 0 327 44" fill="none" xmlns="http://www.w3.org/2000/svg">
<path d="M0 0.703125H30.2387V1.90833C28.408 1.73042 22.6502 1.45494 20.2766 1.39755V42.8967H9.99102V1.39755C7.61743 1.46068 1.8596 1.73042 0.00577515 1.90833V0.703125H0Z" fill="#353531"/>
<path d="M26.0186 29.1694C26.0186 20.6314 32.9964 14.7676 40.0831 14.7676C47.1697 14.7676 54.1476 20.6314 54.1476 29.1694C54.1476 37.7074 47.1983 43.5998 40.0831 43.5998C32.9678 43.5998 26.0186 37.6788 26.0186 29.1694ZM40.7585 42.9127C43.6779 42.3687 44.7369 37.862 44.7369 31.9982C44.7369 23.0078 42.5216 16.0904 39.2988 15.4605C36.4596 15.9415 35.4292 20.9005 35.4292 26.6784C35.4292 35.2508 37.5129 42.4374 40.7585 42.9184V42.9127Z" fill="#353531"/>
<path d="M57.6641 15.4535L65.2741 14.7676L66.984 21.3775C69.0266 17.5964 72.8024 14.9773 77.3544 14.7676L76.3623 24.2913C74.1271 23.6677 69.7444 22.5056 67.0715 22.1201V42.8966H57.6699V15.4535H57.6641Z" fill="#353531"/>
<path d="M80.168 0.694568L89.6489 0V29.7516L99.2125 21.4627C101.944 19.1092 104.758 16.3711 106.015 15.1026H107.549L98.4632 23.0011L109 42.8968H98.3216L91.3245 29.1834L89.6489 30.6299V42.8968H80.168V0.694568Z" fill="#353531"/>
<path d="M135.019 37.4669C132.647 41.1661 128.093 43.5998 123.21 43.5998C115.545 43.5998 109 37.4039 109 29.0778C109 20.7516 115.793 14.7676 123.701 14.7676C132.376 14.7676 134.748 21.5018 134.748 26.3119C134.748 26.6727 134.748 27.0335 134.719 27.3656H118.627C118.818 35.3653 121.438 41.7101 127.083 41.7101C130.004 41.7101 132.676 39.998 134.09 36.7167L135.019 37.4669ZM125.773 26.6727C125.802 26.2833 125.802 25.8939 125.802 25.4988C125.802 21.4388 124.93 16.1763 122.639 15.4547C120.238 15.5464 118.627 20.1733 118.627 26.4895V26.667H125.773V26.6727Z" fill="#353531"/>
<path d="M138.535 15.4535L146.402 14.7676L147.907 18.1916C150.497 16.1961 153.596 14.8583 157.278 14.8583C164.555 14.8583 164.555 20.2437 164.555 23.0442V42.8966H155.047V21.7913C155.047 19.9773 154.658 17.4149 151.648 17.4149C150.308 17.4149 149.164 17.9535 148.048 18.9059V42.8966H138.541V15.4535H138.535Z" fill="#353531"/>
<path d="M188.461 29.7677H171.994C168.444 36.2894 165.63 41.6196 164.982 42.8966H163.852L186.96 1.40625H188.243L195.497 42.8966H190.569L188.455 29.7677H188.461ZM188.338 29.0836L184.729 6.79919L174.108 25.9424L172.365 29.0836H188.343H188.338Z" fill="#353531"/>
<path d="M196.903 15.4707H201.595L205.633 37.8096L212.917 25.1982C214.744 22.0453 217.518 17.05 218.283 15.4707H219.407L207.137 36.5622C206.104 38.3475 204.187 41.6777 203.512 42.8965H202.128L196.909 15.4707H196.903Z" fill="#353531"/>
<path d="M217.297 31.5816C217.297 22.4742 225.399 14.7676 232.404 14.7676C238.16 14.7676 242.613 20.0418 242.613 26.7858C242.613 35.8644 234.54 43.5998 227.506 43.5998C221.75 43.5998 217.297 38.3545 217.297 31.5816ZM227.717 42.937C233.952 41.7092 238.137 33.0803 238.137 25.7944C238.137 20.7623 236.087 16.2029 232.199 15.4247C225.993 16.7159 221.779 25.4947 221.779 32.8324C221.779 37.8069 223.829 42.3894 227.717 42.9312V42.937Z" fill="#353531"/>
<path d="M266.678 37.9037C263.788 41.7088 259.269 43.5998 255.578 43.5998C249.673 43.5998 245.426 38.3246 245.426 31.6426C245.426 22.4412 253.398 14.7676 260.478 14.7676C263.402 14.7676 267.325 15.8745 269.335 16.7451L267.149 20.7635C264.225 18.2786 261.392 16.1167 259.649 15.396C252.506 17.0737 249.877 25.7678 249.877 32.2422C249.877 39.7947 253.477 42.4641 257.435 42.4641C259.706 42.4641 262.982 41.386 265.906 37.3387L266.673 37.9095L266.678 37.9037Z" fill="#353531"/>
<path d="M285.38 38.4724C283.927 40.393 280.515 43.5998 276.556 43.5998C273.08 43.5998 269.336 41.1428 269.336 36.4653C269.336 32.6298 272.057 27.6524 279.643 27.6524C281.73 27.6524 283.782 28.0446 287.014 29.0943L287.648 25.8587C287.828 24.8667 288.101 23.4882 288.101 22.0521C288.101 18.9952 286.95 15.6962 281.631 15.6962C278.73 15.6962 276.376 16.6536 274.411 17.7033L274.016 16.7747C276.161 15.9326 279.759 14.7676 283.689 14.7676C290.793 14.7676 292.542 18.6665 292.542 22.773C292.542 24.0304 292.391 25.2935 292.147 26.4931L288.915 43.0115H285.683L285.38 38.484V38.4724ZM286.892 29.746C284.654 29.0251 282.119 28.8175 280.125 28.8175C277.166 29.5961 273.87 32.6529 273.87 37.094C273.87 40.3642 275.591 42.0714 278.16 42.0714C281.09 42.0714 283.753 39.7932 285.415 37.2439L286.898 29.746H286.892Z" fill="#353531"/>
<path d="M311.312 16.6644C309.913 16.5731 306.961 16.459 304.754 16.3962L300.254 39.2067C300.197 39.4463 300.163 39.743 300.163 40.0397C300.163 41.2549 300.702 42.7098 302.788 42.7098C304.221 42.7098 305.413 41.9681 306.543 40.9297L306.99 41.8483C305.322 42.9152 303.505 43.5999 301.212 43.5999C297.01 43.5999 296.059 41.1351 296.059 38.6761C296.059 37.6377 296.208 36.5993 296.385 35.7377L300.26 16.3392H296.804L296.953 15.6545H300.381L301.303 11.0274L306.491 7.73535L304.915 15.6545H311.53L311.323 16.6644H311.312Z" fill="#353531"/>
<path d="M326.343 17.9788C324.787 16.6586 322.839 15.4594 320.413 15.4594C317.209 15.4594 315.383 17.5292 315.383 20.1639C315.383 22.0837 316.161 23.3982 320.056 27.0246C322.724 29.5152 324.58 31.5792 324.58 34.9058C324.58 40.2098 319.814 43.5998 314.933 43.5998C311.695 43.5998 309.361 42.0086 308.013 40.723L308.641 39.9735C309.932 41.5013 311.908 42.9426 314.749 42.9426C318.281 42.9426 320.863 40.7864 320.863 37.3676C320.863 35.0903 319.843 33.3837 316.247 29.815C313.193 26.7882 311.902 24.9606 311.902 22.4412C311.902 18.1576 315.677 14.7676 320.292 14.7676C323.11 14.7676 325.294 16.059 327 17.1948L326.343 17.9731V17.9788Z" fill="#353531"/>
</svg>
